<svg width="100" height="100" viewBox="0 0 100 100" fill="none" xmlns="http://www.w3.org/2000/svg">
<rect x="12" y="12" width="76" height="66" rx="6" stroke="#3A5C6B" stroke-width="3"/>
<path d="M20 23C20 21.3431 21.3431 20 23 20H77C78.6569 20 80 21.3431 80 23V67C80 68.6569 78.6569 70 77 70H23C21.3431 70 20 68.6569 20 67V23Z" stroke="#3A5C6B" stroke-width="3"/>
<path d="M25 78H37V82C37 85.3137 34.3137 88 31 88V88C27.6863 88 25 85.3137 25 82V78Z" stroke="#3A5C6B" stroke-width="3"/>
<path d="M63 78H75V82C75 85.3137 72.3137 88 69 88V88C65.6863 88 63 85.3137 63 82V78Z" stroke="#3A5C6B" stroke-width="3"/>
<path d="M50 32C45.5817 32 42 35.5568 42 39.9444C42 41.7297 42.593 43.3775 43.5941 44.704C44.6471 46.0995 45.6364 47.6596 45.6364 49.4077V53.6364C45.6364 56.0463 47.59 58 50 58C52.41 58 54.3636 56.0463 54.3636 53.6364V49.4077C54.3636 47.6595 55.3529 46.0995 56.4059 44.704C57.407 43.3775 58 41.7297 58 39.9444C58 35.5568 54.4183 32 50 32Z" stroke="#08C5A4" stroke-width="3"/>
</svg>
