<svg width="40" height="43" viewBox="0 0 40 43" fill="none" xmlns="http://www.w3.org/2000/svg">
<path d="M8.5 41H32C35.3137 41 38 38.3137 38 35V8C38 4.68629 35.3137 2 32 2H8.5" stroke="#2C77CF" stroke-width="3"/>
<path d="M5 2V2C7.20914 2 9 3.79086 9 6V37C9 39.2091 7.20914 41 5 41V41" stroke="#2C77CF" stroke-width="3" stroke-linecap="round"/>
<path d="M9.5 2H5.5C3.567 2 2 3.567 2 5.5V5.5C2 7.433 3.567 9 5.5 9H9.5" stroke="#2C77CF" stroke-width="3"/>
<path d="M9 34H5.5C3.567 34 2 35.567 2 37.5V37.5C2 39.433 3.567 41 5.5 41H9.5" stroke="#2C77CF" stroke-width="3"/>
<path d="M16 10.5C15.1716 10.5 14.5 11.1716 14.5 12C14.5 12.8284 15.1716 13.5 16 13.5V10.5ZM31 13.5C31.8284 13.5 32.5 12.8284 32.5 12C32.5 11.1716 31.8284 10.5 31 10.5V13.5ZM16 13.5H31V10.5H16V13.5Z" fill="#2C77CF"/>
<path d="M16 19.5C15.1716 19.5 14.5 20.1716 14.5 21C14.5 21.8284 15.1716 22.5 16 22.5V19.5ZM31 22.5C31.8284 22.5 32.5 21.8284 32.5 21C32.5 20.1716 31.8284 19.5 31 19.5V22.5ZM16 22.5H31V19.5H16V22.5Z" fill="#2C77CF"/>
<path d="M16 28.5C15.1716 28.5 14.5 29.1716 14.5 30C14.5 30.8284 15.1716 31.5 16 31.5V28.5ZM31 31.5C31.8284 31.5 32.5 30.8284 32.5 30C32.5 29.1716 31.8284 28.5 31 28.5V31.5ZM16 31.5H31V28.5H16V31.5Z" fill="#2C77CF"/>
</svg>
