<svg width="51" height="43" viewBox="0 0 51 43" fill="none" xmlns="http://www.w3.org/2000/svg">
<path d="M22.0714 31.5V14.6169C22.0714 12.8955 23.4669 11.5 25.1883 11.5H28.5C31.2614 11.5 33.5 13.7386 33.5 16.5V16.5C33.5 19.2614 31.2614 21.5 28.5 21.5H18.5" stroke="#2C77CF" stroke-width="3" stroke-linecap="round" stroke-linejoin="round"/>
<path d="M29.9286 26.5H18.5" stroke="#2C77CF" stroke-width="3" stroke-linecap="round" stroke-linejoin="round"/>
<path d="M9 8C9 4.68629 11.6863 2 15 2H36C39.3137 2 42 4.68629 42 8V35C42 38.3137 39.3137 41 36 41H15C11.6863 41 9 38.3137 9 35V8Z" stroke="#2C77CF" stroke-width="3"/>
<path d="M2 13C2 9.68629 4.68629 7 8 7H9V36H8C4.68629 36 2 33.3137 2 30V13Z" stroke="#2C77CF" stroke-width="3"/>
<path d="M49 30C49 33.3137 46.3137 36 43 36L42 36L42 7L43 7C46.3137 7 49 9.68629 49 13L49 30Z" stroke="#2C77CF" stroke-width="3"/>
</svg>
