<svg width="22" height="29" viewBox="0 0 22 29" fill="none" xmlns="http://www.w3.org/2000/svg">
<circle cx="11" cy="11" r="3" fill="#2C77CF"/>
<path d="M20.5 11C20.5 12.2695 20.1253 13.966 19.4344 15.8618C18.7514 17.736 17.7945 19.7096 16.7146 21.505C15.6306 23.3072 14.4531 24.879 13.3482 25.9786C12.7956 26.5285 12.2929 26.9284 11.8603 27.183C11.4176 27.4436 11.1371 27.5 11 27.5C10.8629 27.5 10.5824 27.4436 10.1397 27.183C9.70707 26.9284 9.20442 26.5285 8.65185 25.9786C7.54688 24.879 6.36941 23.3072 5.28538 21.505C4.20545 19.7096 3.24859 17.736 2.56558 15.8618C1.87469 13.966 1.5 12.2695 1.5 11C1.5 5.75329 5.75329 1.5 11 1.5C16.2467 1.5 20.5 5.75329 20.5 11Z" stroke="#2C77CF" stroke-width="3"/>
</svg>