<svg width="50" height="50" viewBox="0 0 50 50" fill="none" xmlns="http://www.w3.org/2000/svg">
<path d="M1.5 7.5C1.5 4.18629 4.18629 1.5 7.5 1.5H42.5C45.8137 1.5 48.5 4.18629 48.5 7.5V35.5C48.5 38.8137 45.8137 41.5 42.5 41.5H7.5C4.18629 41.5 1.5 38.8137 1.5 35.5V7.5Z" stroke="#2C77CF" stroke-width="3"/>
<path d="M8.5 11.5C8.5 9.84315 9.84315 8.5 11.5 8.5H38.5C40.1569 8.5 41.5 9.84315 41.5 11.5V31.5C41.5 33.1569 40.1569 34.5 38.5 34.5H11.5C9.84314 34.5 8.5 33.1569 8.5 31.5V11.5Z" stroke="#2C77CF" stroke-width="3"/>
<path d="M13.5 41.5H21.5V44.5C21.5 46.7091 19.7091 48.5 17.5 48.5V48.5C15.2909 48.5 13.5 46.7091 13.5 44.5V41.5Z" stroke="#2C77CF" stroke-width="3"/>
<path d="M30.5 41.5H38.5V44.5C38.5 46.7091 36.7091 48.5 34.5 48.5V48.5C32.2909 48.5 30.5 46.7091 30.5 44.5V41.5Z" stroke="#2C77CF" stroke-width="3"/>
<path d="M16.5 21C16.5 20.1716 17.1716 19.5 18 19.5C18.8284 19.5 19.5 20.1716 19.5 21C19.5 21.8284 18.8284 22.5 18 22.5C17.1716 22.5 16.5 21.8284 16.5 21Z" fill="#2C77CF" stroke="#2C77CF" stroke-width="3"/>
</svg>
