<svg width="100" height="100" viewBox="0 0 100 100" fill="none" xmlns="http://www.w3.org/2000/svg">
<path d="M83 77L86.998 71.5482C89.9043 67.585 87.0742 62 82.1596 62H11.2861C8.48026 62 7.21005 65.5084 9.3656 67.3047L21 77" stroke="#3A5C6B" stroke-width="3" stroke-linecap="round"/>
<path d="M9 81.5L11.3277 83.6679C14.587 86.7036 19.6076 86.8034 22.985 83.8997V83.8997C26.2622 81.0823 31.1062 81.0823 34.3834 83.8997L34.5 84C37.8442 86.8751 42.7874 86.8751 46.1316 84V84C49.4758 81.1249 54.419 81.1249 57.7632 84V84C61.1074 86.8751 66.0505 86.8751 69.3947 84L69.6829 83.7523C72.8614 81.0196 77.5597 81.0196 80.7382 83.7523V83.7523C84.1594 86.6936 89.2847 86.4406 92.3997 83.1768L94 81.5" stroke="#2EC1E0" stroke-width="3" stroke-linecap="round" stroke-linejoin="round"/>
<path d="M44.1804 13.5998C46.5727 9.75941 52.4999 11.4546 52.4999 15.9791L52.5 50C52.5 52.4853 50.4853 54.5 48 54.5H26.8067C23.2752 54.5 21.1199 50.6181 22.9871 47.6206L44.1804 13.5998Z" stroke="#3A5C6B" stroke-width="3" stroke-linejoin="round"/>
<path d="M67.8263 32.7229C65.4412 28.8701 59.5001 30.5602 59.5001 35.0914L59.5 50C59.5 52.4853 61.5147 54.5 64 54.5H73.2291C76.7549 54.5 78.9111 50.6293 77.0553 47.6314L67.8263 32.7229Z" stroke="#3A5C6B" stroke-width="3" stroke-linejoin="round"/>
</svg>
