<svg width="100" height="100" viewBox="0 0 100 100" fill="none" xmlns="http://www.w3.org/2000/svg">
<path d="M25 24H18C14.6863 24 12 26.6863 12 30V71C12 74.3137 14.6863 77 18 77H82C85.3137 77 88 74.3137 88 71V30C88 26.6863 85.3137 24 82 24H75" stroke="#3A5C6B" stroke-width="3" stroke-linecap="round"/>
<path d="M12 67H88" stroke="#3A5C6B" stroke-width="3"/>
<path d="M45 77L45 88" stroke="#3A5C6B" stroke-width="3"/>
<path d="M55 77L55 88" stroke="#3A5C6B" stroke-width="3"/>
<path d="M39 88H61" stroke="#3A5C6B" stroke-width="3" stroke-linecap="round"/>
<rect x="32" y="12" width="36" height="44" rx="6" stroke="#2C77CF" stroke-width="3"/>
<path d="M41 24L59 24" stroke="#2C77CF" stroke-width="3" stroke-linecap="round"/>
<path d="M41 32L59 32" stroke="#2C77CF" stroke-width="3" stroke-linecap="round"/>
<path d="M41 40L48 40" stroke="#2C77CF" stroke-width="3" stroke-linecap="round"/>
</svg>
