<svg width="100" height="100" viewBox="0 0 100 100" fill="none" xmlns="http://www.w3.org/2000/svg">
<path d="M19 88L23.4651 84.4005C26.4993 81.9544 30.5324 81.1343 34.2809 82.201L52.5757 87.4073C56.11 88.4131 59.9104 87.7441 62.8888 85.5918L86.177 68.7627C88.3086 67.2223 88.8345 64.269 87.3658 62.0874V62.0874C85.8506 59.837 82.7899 59.256 80.5555 60.7948L63.5586 72.5" stroke="#3A5C6B" stroke-width="3" stroke-linecap="round"/>
<path d="M12.2225 71.0033L24.5966 60.9973C28.0444 58.2094 32.7486 57.5498 36.8302 59.2821L60.1097 69.1624C62.5164 70.1839 63.6589 72.9471 62.6762 75.37V75.37C61.6923 77.7959 58.9425 78.9821 56.5027 78.0329L36.416 70.2184" stroke="#3A5C6B" stroke-width="3" stroke-linecap="round"/>
<path d="M75.4696 43.3281C75.7663 47.6672 73.8685 51.1444 70.6138 53.5959C67.3191 56.0775 62.6211 57.5 57.5 57.5C52.3789 57.5 47.6809 56.0775 44.3861 53.5959C41.1315 51.1444 39.2337 47.6672 39.5304 43.3281C39.8379 38.832 42.167 34.0897 45.5865 30.4604C49.0141 26.8224 53.3442 24.5 57.5 24.5C61.6558 24.5 65.9859 26.8224 69.4135 30.4604C72.833 34.0897 75.1621 38.832 75.4696 43.3281Z" stroke="#08C5A4" stroke-width="3"/>
<path d="M61.2067 21.97C59.4183 24.5678 55.5817 24.5678 53.7933 21.97L51.7844 19.0516C49.7292 16.0661 51.8665 12 55.4911 12L59.509 12C63.1335 12 65.2708 16.0661 63.2156 19.0516L61.2067 21.97Z" stroke="#08C5A4" stroke-width="3"/>
</svg>
