<svg width="113" height="121" viewBox="0 0 113 121" fill="none" xmlns="http://www.w3.org/2000/svg">
<g opacity="0.5">
<path fill-rule="evenodd" clip-rule="evenodd" d="M62.2601 29.2C64.4305 29.2 66.1913 30.983 66.1913 33.1809C66.1913 35.3819 64.4305 37.1649 62.2601 37.1649C60.0896 37.1649 58.3289 35.3819 58.3289 33.1809C58.3289 30.983 60.0896 29.2 62.2601 29.2ZM59.184 40.1776C58.6555 41.0045 58.2042 41.4014 58.1656 41.4375C57.5985 41.8945 57.5064 42.7304 57.9607 43.3016C58.219 43.6294 58.5991 43.8008 58.9851 43.8008C59.2701 43.8008 59.5611 43.7076 59.8016 43.5091C59.8758 43.449 60.7725 42.6973 61.6752 41.1157C61.9869 41.0887 62.3521 41.0466 62.7767 40.9955C63.7001 42.6642 64.6414 43.449 64.7186 43.5091C64.9591 43.7046 65.2441 43.8008 65.5291 43.8008C65.9092 43.8008 66.2863 43.6324 66.5476 43.3107C67.0018 42.7454 66.9187 41.9125 66.3664 41.4465C66.3278 41.4134 66.0101 41.1308 65.6004 40.5655C65.9151 40.4843 66.1913 40.3911 66.4496 40.2678C67.0018 40.0002 68.8457 39.1102 69.2703 37.4234C69.6117 36.0734 68.6468 35.7938 68.5666 33.8695C68.4597 31.3829 70.0066 30.3516 69.2703 28.8903C69.0832 28.5204 68.6765 28.1686 67.8599 27.4681C67.1236 26.8367 66.5268 26.3255 65.7459 26.0459C64.7304 25.6881 64.3415 26.0549 62.9252 26.0459C60.3747 26.0339 59.8491 24.8462 58.6941 25.3363C58.1775 25.5528 57.643 26.6683 56.5771 28.8903C55.5141 31.1093 55.3597 31.9091 54.463 32.4473C54.2404 32.5796 53.8454 32.772 53.7564 33.1569C53.6495 33.6289 54.0949 33.9747 54.463 34.5791C55.235 35.8599 54.5491 36.5124 55.1667 37.4234C55.7932 38.3435 56.5801 37.8113 57.9874 38.8456C58.6733 39.3508 58.9227 39.7988 59.184 40.1776Z" fill="#D1D1D1"/>
<path fill-rule="evenodd" clip-rule="evenodd" d="M38.0113 83.6239C34.1217 83.6239 30.8823 80.7494 30.2559 76.988H82.4687C81.8422 80.7494 78.6029 83.6239 74.7132 83.6239H38.0113ZM73.4009 86.9433V106.069C71.2898 107.858 69.1015 109.56 66.8479 111.175V86.9433V86.2788H73.4009V86.9433ZM64.2261 86.9433V112.997C62.0972 114.425 59.909 115.772 57.6732 117.038V86.9433V86.2788H64.2261V86.9433ZM55.0514 86.9433V117.038C52.8156 115.772 50.6273 114.425 48.4984 112.997V86.9433V86.2788H55.0514V86.9433ZM45.8767 86.9433V111.175C43.6231 109.56 41.4348 107.858 39.3207 106.069V86.9433V86.2788H45.8767V86.9433ZM21.0811 67.6941H91.6435C91.0199 71.4555 87.7776 74.333 83.888 74.333H28.8366C24.947 74.333 21.7046 71.4555 21.0811 67.6941ZM111.516 17.2107C108.363 16.9882 105.45 15.8937 103.004 14.1678C102.297 13.6687 101.347 13.9093 101.026 14.7181C100.794 15.3044 100.987 15.9599 101.468 16.2996C103.983 18.0886 106.92 19.3034 110.103 19.7333V26.5647C110.103 45.85 104.838 64.6693 94.8769 80.987C89.6808 89.4931 83.3179 97.1543 76.0227 103.769V86.9433V86.2788V86.1856C80.7911 85.5843 84.562 81.7477 85.1202 76.9068C90.3311 76.2874 94.3751 71.8103 94.3751 66.3681C94.3751 65.6345 93.7872 65.0421 93.0657 65.0421H19.6618C18.9374 65.0421 18.3495 65.6345 18.3495 66.3681C18.3495 71.8103 22.3935 76.2874 27.6044 76.9068C28.1626 81.7477 31.9334 85.5843 36.7019 86.1856V86.9433V103.769C29.4067 97.1543 23.0437 89.4931 17.8477 80.987C7.88612 64.6693 2.62178 45.85 2.62178 26.5647V22.5657V19.7303C11.3808 18.5487 18.3138 11.5249 19.4807 2.65496H28.7653C29.4185 2.65496 30.0243 2.20094 30.1282 1.54848C30.2618 0.718615 29.6323 0 28.8366 0H18.3495C17.0401 0 16.9837 1.32598 16.9837 1.32598C16.3453 9.82908 9.62605 16.6093 1.21439 17.2107C0.531482 17.2618 0 17.8361 0 18.5306V22.5657V26.5647C0 67.2611 22.5835 102.612 55.7402 120.46C56.1292 120.667 56.5954 120.667 56.9843 120.46C90.1411 102.612 112.725 67.2611 112.725 26.5647V18.5246C112.725 17.8331 112.196 17.2618 111.516 17.2107Z" fill="#D1D1D1"/>
<path fill-rule="evenodd" clip-rule="evenodd" d="M36.5833 49.1123H36.7021H39.2318H39.3238H55.1436C55.4702 51.7493 56.7469 54.0795 58.6175 55.7483H39.3238H36.7021H35.7579H28.8367C24.9471 55.7483 21.7166 52.8738 21.0902 49.1123H36.5833ZM39.3238 10.6199C39.3238 6.22098 42.8453 2.65496 47.1892 2.65496H76.0257H76.9699C76.6344 2.95263 76.3197 3.27135 76.0257 3.61111C74.6718 5.16861 73.7603 7.12601 73.493 9.29087C73.4396 9.72685 73.404 10.1688 73.404 10.6199V47.7864C73.404 48.2374 73.3565 48.6794 73.2852 49.1123C72.6587 52.8738 69.4282 55.7483 65.5386 55.7483C61.649 55.7483 58.4186 52.8738 57.7921 49.1123C57.7594 48.9109 57.7297 48.3125 57.7089 47.7383C57.6852 47.0226 57.1062 46.4574 56.3995 46.4574H39.3238V10.6199ZM83.8911 2.65496C87.7777 2.65496 91.0082 5.52942 91.6376 9.29087H76.1445C76.771 5.52942 80.0015 2.65496 83.8911 2.65496ZM18.3496 47.7864C18.3496 48.2344 18.3882 48.6764 18.4417 49.1123C18.7653 51.7493 20.045 54.0795 21.9186 55.7483C23.7654 57.396 26.1823 58.4032 28.8367 58.4032H65.5386C68.1931 58.4032 70.61 57.396 72.4598 55.7483C72.7923 55.4506 73.1071 55.1319 73.404 54.7921C74.7579 53.2346 75.6665 51.2772 75.9337 49.1123L76.0257 47.7864V11.9458H93.0658C93.7903 11.9458 94.3752 11.3505 94.3752 10.6199C94.3752 10.1688 94.3396 9.72685 94.2861 9.29087C93.9595 6.65395 92.6828 4.32371 90.8092 2.65496C88.9624 1.00726 86.5455 0 83.8911 0H47.1892C44.5318 0 42.1148 1.00726 40.268 2.65496C39.9325 2.95263 39.6178 3.27135 39.3238 3.61111C37.6967 5.48131 36.7021 7.92881 36.7021 10.6199V46.4574H19.662C18.9375 46.4574 18.3496 47.0527 18.3496 47.7864Z" fill="#D1D1D1"/>
</g>
</svg>
