<svg width="100" height="100" viewBox="0 0 100 100" fill="none" xmlns="http://www.w3.org/2000/svg">
<path d="M49.9991 8.5C68.329 8.5 82.547 17.2179 86.5629 19.8483C88.862 49.0996 81.7214 65.9723 73.1162 75.8921C64.7447 85.5425 54.8184 88.8257 50.0721 90.3955C50.0477 90.4036 50.0233 90.4116 49.9991 90.4196C49.975 90.4117 49.9507 90.4036 49.9262 90.3955C45.1801 88.8257 35.2538 85.5426 26.8823 75.8921C18.2772 65.9723 11.1366 49.0996 13.4353 19.8483C17.4512 17.2179 31.6693 8.5 49.9991 8.5Z" stroke="#3A5C6B" stroke-width="3"/>
<rect x="26.7402" y="31.176" width="9" height="20" rx="3" transform="rotate(15 26.7402 31.176)" stroke="#08C5A4" stroke-width="3"/>
<rect x="61.0371" y="35.5897" width="9" height="20" rx="3" transform="rotate(-30 61.0371 35.5897)" stroke="#08C5A4" stroke-width="3"/>
<path d="M69.999 51.5L66.32 55.6401C66.1081 55.8785 65.8632 56.0795 65.5872 56.2394C63.1102 57.6736 50.2561 65.0972 48 66C45.501 67 42.0003 64.5 44.9993 63" stroke="#08C5A4" stroke-width="3" stroke-linecap="round" stroke-linejoin="round"/>
<path d="M52.0008 59C50.1173 60.0876 46.2618 62.3813 44.0016 63.5C41.1764 64.8984 38 62.5 40.5019 60" stroke="#08C5A4" stroke-width="3" stroke-linecap="round" stroke-linejoin="round"/>
<path d="M47.3389 56C45.6019 57.1778 42.1254 59.2376 39.8383 60C36.8384 61 34.7608 57.9905 36.8396 56.5" stroke="#08C5A4" stroke-width="3" stroke-linecap="round" stroke-linejoin="round"/>
<path d="M42.9982 53C41.1227 54.0468 38.7502 55.4233 36.4996 56.5C33.6864 57.8458 31.6541 54.3458 33.9982 53L39.4982 50" stroke="#08C5A4" stroke-width="3" stroke-linecap="round" stroke-linejoin="round"/>
<path d="M34.998 34.5L37.5826 35.6077C38.1591 35.8548 38.8182 35.8171 39.3628 35.5059L41.2308 34.4384C41.7195 34.1592 42.3033 34.0987 42.8388 34.272L57.0058 38.8555C58.091 39.2065 58.6633 40.3926 58.2628 41.4606L58.1459 41.7723C57.78 42.7482 56.726 43.2794 55.7238 42.9931L48.4018 40.9011C47.5655 40.6621 46.6707 40.991 46.1882 41.7147L44.5451 44.1794C44.2002 44.6967 43.6344 45.0242 43.014 45.0656L36.498 45.5" stroke="#08C5A4" stroke-width="3" stroke-linecap="round" stroke-linejoin="round"/>
</svg>
