<svg width="100" height="100" viewBox="0 0 100 100" fill="none" xmlns="http://www.w3.org/2000/svg">
<path d="M27 88H48M27 12H79C82.3137 12 85 14.6863 85 18V55" stroke="#3A5C6B" stroke-width="3" stroke-linecap="round"/>
<path d="M20 12H21C24.3137 12 27 14.6863 27 18V82C27 85.3137 24.3137 88 21 88H20" stroke="#3A5C6B" stroke-width="3" stroke-linecap="round"/>
<path d="M28 12H20C16.6863 12 14 14.6863 14 18V18C14 21.3137 16.6863 24 20 24H28" stroke="#3A5C6B" stroke-width="3"/>
<path d="M28 76H20C16.6863 76 14 78.6863 14 82V82C14 85.3137 16.6863 88 20 88H28" stroke="#3A5C6B" stroke-width="3"/>
<path d="M38 26H74" stroke="#6321CD" stroke-width="3" stroke-linecap="round"/>
<path d="M38 38H74" stroke="#6321CD" stroke-width="3" stroke-linecap="round"/>
<path d="M38 50L56 50" stroke="#6321CD" stroke-width="3" stroke-linecap="round"/>
<circle cx="70.202" cy="75.1972" r="18.0067" stroke="#6321CD" stroke-width="3"/>
<path d="M61 74.6L61.1756 74.4573C62.608 73.294 64.7479 73.7437 65.5909 75.3851V75.3851C66.5011 77.1573 68.8846 77.5082 70.2668 76.0733L71.4924 74.8011C73.3604 72.862 76.5494 73.1767 78.0024 75.4436L79 77" stroke="#6321CD" stroke-width="3" stroke-linecap="round" stroke-linejoin="round"/>
</svg>
