<svg width="100" height="100" viewBox="0 0 100 100" fill="none" xmlns="http://www.w3.org/2000/svg">
<rect x="12" y="12" width="36" height="36" rx="6" stroke="#3A5C6B" stroke-width="3"/>
<path d="M37.2828 39.1421L30.1406 21L22.9985 39.1421" stroke="#FF9400" stroke-width="3" stroke-linecap="round" stroke-linejoin="round"/>
<path d="M25.5 33H34.5" stroke="#FF9400" stroke-width="3"/>
<path d="M21 58V72C21 75.3137 23.6863 78 27 78H41" stroke="#3A5C6B" stroke-width="3" stroke-linecap="round"/>
<path d="M37 83L42 78L37 73" stroke="#3A5C6B" stroke-width="3" stroke-linecap="round" stroke-linejoin="round"/>
<path d="M79 42L79 28C79 24.6863 76.3137 22 73 22L59 22" stroke="#3A5C6B" stroke-width="3" stroke-linecap="round"/>
<path d="M63 17L58 22L63 27" stroke="#3A5C6B" stroke-width="3" stroke-linecap="round" stroke-linejoin="round"/>
<rect x="52" y="52" width="36" height="36" rx="6" stroke="#3A5C6B" stroke-width="3"/>
<path d="M63 64H77" stroke="#FF9400" stroke-width="3" stroke-linecap="round"/>
<path d="M70 64L70 61" stroke="#FF9400" stroke-width="3" stroke-linecap="round"/>
<path d="M74 66C74 73.4558 68.799 79 63 79" stroke="#FF9400" stroke-width="3" stroke-linecap="round"/>
<path d="M66 66C66 73.4558 71.201 79 77 79" stroke="#FF9400" stroke-width="3" stroke-linecap="round"/>
</svg>
