<svg width="100" height="100" viewBox="0 0 100 100" fill="none" xmlns="http://www.w3.org/2000/svg">
<path d="M20.5 82H21.8571C25.802 82 29 78.802 29 74.8571C29 74.3838 29.3838 74 29.8571 74H70.1429C70.6162 74 71 74.3838 71 74.8571C71 78.802 74.198 82 78.1429 82H79.5C84.1944 82 88 78.1944 88 73.5V51.8113C88 50.811 88.811 50 89.8113 50H90.3333C92.9107 50 95 47.9107 95 45.3333V45C95 42.2386 92.7614 40 90 40H89.3393C87.279 40 85.3814 38.8806 84.3848 37.0773L80.575 30.1833C77.3731 24.3895 71.6742 20.3999 65.1345 19.374C55.105 17.8008 44.8309 17.7952 34.7968 19.3389C28.0334 20.3795 22.12 24.5719 18.9329 30.6274L15.578 37.0018C14.6076 38.8456 12.6955 40 10.6119 40H10C7.23858 40 5 42.2386 5 45V45.3333C5 47.9107 7.08934 50 9.66667 50H10.1887C11.189 50 12 50.811 12 51.8113V73.5C12 78.1944 15.8056 82 20.5 82Z" stroke="#3A5C6B" stroke-width="3" stroke-linecap="round" stroke-linejoin="round"/>
<path d="M45 64V40.3636C45 37.9537 46.9537 36 49.3636 36H54C57.866 36 61 39.134 61 43V43C61 46.866 57.866 50 54 50H40" stroke="#2EC1E0" stroke-width="3" stroke-linecap="round" stroke-linejoin="round"/>
<path d="M56 57H40" stroke="#2EC1E0" stroke-width="3" stroke-linecap="round" stroke-linejoin="round"/>
</svg>
