<svg width="100" height="100" viewBox="0 0 100 100" fill="none" xmlns="http://www.w3.org/2000/svg">
<path d="M23 55V82C23 85.3137 25.6863 88 29 88H71C74.3137 88 77 85.3137 77 82V55C77 52.7909 78.7909 51 81 51H82.1762C85.7631 51 87.537 46.6433 84.9703 44.1377L54.1912 14.0914C51.8603 11.816 48.1397 11.816 45.8088 14.0914L15.0297 44.1377C12.463 46.6433 14.2369 51 17.8238 51H19C21.2091 51 23 52.7909 23 55Z" stroke="#3A5C6B" stroke-width="3"/>
<path d="M44 70V46.3636C44 43.9537 45.9537 42 48.3636 42H53C56.866 42 60 45.134 60 49V49C60 52.866 56.866 56 53 56H39" stroke="#FF1232" stroke-width="3" stroke-linecap="round" stroke-linejoin="round"/>
<path d="M55 63H39" stroke="#FF1232" stroke-width="3" stroke-linecap="round" stroke-linejoin="round"/>
</svg>
