<svg width="75" height="75" viewBox="0 0 75 75" fill="none" xmlns="http://www.w3.org/2000/svg">
<path d="M18 65.5H53.5M18 8.5H55.5C58.8137 8.5 61.5 11.1863 61.5 14.5V46.5" stroke="#2C77CF" stroke-width="3" stroke-linecap="round"/>
<path d="M13.5 8.5V8.5C16.2614 8.5 18.5 10.7386 18.5 13.5V60.5C18.5 63.2614 16.2614 65.5 13.5 65.5V65.5" stroke="#2C77CF" stroke-width="3" stroke-linecap="round"/>
<path d="M18.75 8.5H13.5C10.7386 8.5 8.5 10.7386 8.5 13.5V13.5C8.5 16.2614 10.7386 18.5 13.5 18.5H18.75" stroke="#2C77CF" stroke-width="3"/>
<path d="M18.75 55.5H13.5C10.7386 55.5 8.5 57.7386 8.5 60.5V60.5C8.5 63.2614 10.7386 65.5 13.5 65.5H18.75" stroke="#2C77CF" stroke-width="3"/>
<path d="M55.4714 37.7366C55.4714 46.3226 48.5195 53.5 40 53.5C31.4773 53.5 24.5 46.3192 24.5 37.7367C24.5 29.2146 31.4168 22.5 40 22.5C48.5799 22.5 55.4713 29.2113 55.4714 37.7366Z" stroke="#FF1232" stroke-width="3"/>
<rect x="54.4201" y="56.6992" width="6.40519" height="18.638" rx="3.2026" transform="rotate(-45 54.4201 56.6992)" stroke="#FF1232" stroke-width="3"/>
<path d="M51.1875 48.9404L56.7296 54.4825" stroke="#FF1232" stroke-width="3"/>
<path d="M34.502 45.5L34.5018 45.0019C34.5008 41.9636 36.9636 39.5 40.0019 39.5V39.5C43.0395 39.5 45.502 41.9625 45.502 45.0001V45.5" stroke="#FF1232" stroke-width="3" stroke-linecap="round"/>
<path d="M37 31.5C37 33.1569 38.3431 34.5 40 34.5C41.6569 34.5 43 33.1569 43 31.5C43 29.8431 41.6569 28.5 40 28.5C38.3431 28.5 37 29.8431 37 31.5Z" stroke="#FF1232" stroke-width="3"/>
</svg>
