<svg width="20" height="21" viewBox="0 0 20 21" fill="none" xmlns="http://www.w3.org/2000/svg">
<path d="M9.33292 18.4107C6.76228 18.4022 4.66234 16.3023 4.65528 13.733L4.6292 6.61328C4.62904 6.56689 4.648 6.52329 4.68064 6.49065C4.71328 6.45801 4.75688 6.43905 4.80327 6.4392L5.81024 6.4425C5.85617 6.44276 5.90025 6.46119 5.93283 6.49377C5.96541 6.52635 5.98384 6.57043 5.9841 6.61636L6.01018 13.7361C6.01308 14.6203 6.36101 15.4524 6.98798 16.0793C7.61495 16.7063 8.44704 17.0542 9.32984 17.0558C10.214 17.0587 11.0438 16.7162 11.6653 16.0947C12.2882 15.4718 12.6293 14.6433 12.6264 13.7592L12.6013 6.50162L12.5974 5.32546C12.5938 4.22571 11.6971 3.32906 10.5974 3.32545C10.0653 3.32371 9.56654 3.52946 9.19119 3.90482C8.81583 4.28017 8.61007 4.77888 8.61182 5.31102L8.6368 12.5113C8.63876 12.6927 8.70891 12.8635 8.83759 12.9922L8.83896 12.9936C8.96764 13.1223 9.13705 13.191 9.31716 13.1916C9.5 13.1922 9.66896 13.1218 9.7968 12.994C9.92328 12.8675 9.9923 12.6972 9.99171 12.5171L9.96968 6.63353C9.96953 6.58713 9.98849 6.54353 10.0211 6.5109C10.0538 6.47826 10.0974 6.4593 10.1438 6.45945L11.1507 6.46275C11.1967 6.463 11.2407 6.48144 11.2733 6.51402C11.3059 6.5466 11.3243 6.59068 11.3246 6.63661L11.3439 12.5201C11.3457 13.0632 11.1358 13.5714 10.7537 13.9536C10.3715 14.3358 9.86056 14.5456 9.32023 14.5438C8.19865 14.5401 7.28556 13.6243 7.28053 12.5041L7.27959 11.8041L7.25691 5.30521C7.25417 4.86532 7.3388 4.42984 7.50587 4.02401C7.67294 3.61819 7.91914 3.2501 8.23019 2.9411C8.85986 2.31143 9.69923 1.96762 10.5916 1.97054C11.5153 1.97494 12.353 2.35291 12.9608 2.96071C13.5686 3.56852 13.9465 4.40616 13.9496 5.32853L13.98 13.7636C13.9827 15.0066 13.5021 16.1771 12.625 17.0543C11.7478 17.9342 10.5773 18.4147 9.33292 18.4107Z" fill="#9F9F9F"/>
</svg>