<svg width="20" height="20" viewBox="0 0 20 20" fill="none" xmlns="http://www.w3.org/2000/svg">
<path d="M7.50574 2.8898L12.1711 7.65124C12.5842 8.07379 12.8162 8.64632 12.8162 9.24321C12.8162 9.84011 12.5842 10.4126 12.1711 10.8352L10.6153 12.422L12.1604 14L13.7163 12.4127C14.5384 11.5713 15 10.4316 15 9.24345C15 8.05527 14.5384 6.91558 13.7163 6.07424L9.0509 1.31288C8.64314 0.896651 8.15903 0.566475 7.62622 0.34121C7.09342 0.115944 6.52235 0 5.94564 0C5.36892 0 4.79786 0.115944 4.26505 0.34121C3.73224 0.566475 3.24813 0.896651 2.84037 1.31288L1.28453 2.90016C0.461981 3.74113 0 4.88084 0 6.0691C0 7.25737 0.461981 8.39708 1.28453 9.23805L2.82969 7.66107C2.41661 7.23852 2.18462 6.666 2.18462 6.0691C2.18462 5.4722 2.41661 4.89968 2.82969 4.47713L4.38553 2.8898C4.80585 2.48033 5.36457 2.25187 5.94564 2.25187C6.5267 2.25187 7.08542 2.48033 7.50574 2.8898Z" fill="white"/>
<path d="M18.7162 10.7619L17.171 12.3389C17.5841 12.7615 17.8161 13.334 17.8161 13.9309C17.8161 14.5278 17.5841 15.1003 17.171 15.5228L15.615 17.1102C15.1947 17.5196 14.6359 17.7481 14.0548 17.7481C13.4738 17.7481 12.915 17.5196 12.4947 17.1102L7.82903 12.3487C7.41593 11.9262 7.18393 11.3537 7.18393 10.7568C7.18393 10.1599 7.41593 9.58736 7.82903 9.16482L9.38496 7.57802L7.83971 6L6.28379 7.58732C5.46167 8.42865 5 9.56834 5 10.7565C5 11.9447 5.46167 13.0844 6.28379 13.9257L10.9494 18.6871C11.773 19.5277 12.89 19.9999 14.0547 20C15.2195 20.0001 16.3366 19.528 17.1603 18.6877L18.7162 17.1004C19.5383 16.259 20 15.1193 20 13.9311C20 12.743 19.5383 11.6033 18.7162 10.7619V10.7619Z" fill="white"/>
</svg>
