<svg width="39" height="42" viewBox="0 0 39 42" fill="none" xmlns:xlink="http://www.w3.org/1999/xlink" xmlns="http://www.w3.org/2000/svg">
    <defs>
        <symbol id="logo-symbol" viewBox="0 0 39 42">
            <path fill-rule="evenodd" clip-rule="evenodd" d="M21.4925 10.4496C22.2235 10.4496 22.8165 11.0501 22.8165 11.7903C22.8165 12.5316 22.2235 13.1321 21.4925 13.1321C20.7615 13.1321 20.1685 12.5316 20.1685 11.7903C20.1685 11.0501 20.7615 10.4496 21.4925 10.4496ZM20.4565 14.1468C20.2785 14.4253 20.1265 14.5589 20.1135 14.5711C19.9225 14.725 19.8915 15.0065 20.0445 15.1989C20.1315 15.3093 20.2595 15.367 20.3895 15.367C20.4855 15.367 20.5835 15.3357 20.6645 15.2688C20.6895 15.2486 20.9915 14.9954 21.2955 14.4627C21.4005 14.4536 21.5235 14.4395 21.6665 14.4222C21.9775 14.9843 22.2945 15.2486 22.3205 15.2688C22.4015 15.3346 22.4975 15.367 22.5935 15.367C22.7215 15.367 22.8485 15.3103 22.9365 15.202C23.0895 15.0116 23.0615 14.7311 22.8755 14.5741C22.8625 14.563 22.7555 14.4678 22.6175 14.2774C22.7235 14.2501 22.8165 14.2187 22.9035 14.1772C23.0895 14.087 23.7105 13.7873 23.8535 13.2192C23.9685 12.7645 23.6435 12.6703 23.6165 12.0222C23.5805 11.1848 24.1015 10.8374 23.8535 10.3453C23.7905 10.2207 23.6535 10.1022 23.3785 9.86629C23.1305 9.65363 22.9295 9.48148 22.6665 9.3873C22.3245 9.26679 22.1935 9.39034 21.7165 9.3873C20.8575 9.38325 20.6805 8.98325 20.2915 9.14831C20.1175 9.22122 19.9375 9.59692 19.5785 10.3453C19.2205 11.0926 19.1685 11.362 18.8665 11.5432C18.7915 11.5878 18.6585 11.6526 18.6285 11.7822C18.5925 11.9412 18.7425 12.0577 18.8665 12.2612C19.1265 12.6926 18.8955 12.9124 19.1035 13.2192C19.3145 13.5291 19.5795 13.3498 20.0535 13.6982C20.2845 13.8683 20.3685 14.0192 20.4565 14.1468Z" fill="currentColor"/>
            <path fill-rule="evenodd" clip-rule="evenodd" d="M13.3254 28.7793C12.0154 28.7793 10.9244 27.8112 10.7134 26.5443H28.2984C28.0874 27.8112 26.9964 28.7793 25.6864 28.7793H13.3254ZM25.2444 29.8973V36.3388C24.5334 36.9413 23.7964 37.5145 23.0374 38.0583V29.8973V29.6735H25.2444V29.8973ZM22.1544 29.8973V38.6719C21.4374 39.153 20.7004 39.6066 19.9474 40.033V29.8973V29.6735H22.1544V29.8973ZM19.0644 29.8973V40.033C18.3114 39.6066 17.5744 39.153 16.8574 38.6719V29.8973V29.6735H19.0644V29.8973ZM15.9744 29.8973V38.0583C15.2154 37.5145 14.4784 36.9413 13.7664 36.3388V29.8973V29.6735H15.9744V29.8973ZM7.62344 23.4142H31.3884C31.1784 24.6811 30.0864 25.6502 28.7764 25.6502H10.2354C8.92544 25.6502 7.83344 24.6811 7.62344 23.4142ZM38.0814 6.41169C37.0194 6.33675 36.0384 5.96815 35.2144 5.38688C34.9764 5.21878 34.6564 5.29979 34.5484 5.5722C34.4704 5.76966 34.5354 5.99042 34.6974 6.10485C35.5444 6.70739 36.5334 7.1165 37.6054 7.26131V9.56207C37.6054 16.0573 35.8324 22.3955 32.4774 27.8912C30.7274 30.756 28.5844 33.3362 26.1274 35.5641V29.8973V29.6735V29.6421C27.7334 29.4395 29.0034 28.1474 29.1914 26.517C30.9464 26.3084 32.3084 24.8006 32.3084 22.9676C32.3084 22.7206 32.1104 22.5211 31.8674 22.5211H7.14544C6.90144 22.5211 6.70344 22.7206 6.70344 22.9676C6.70344 24.8006 8.06544 26.3084 9.82044 26.517C10.0084 28.1474 11.2784 29.4395 12.8844 29.6421V29.8973V35.5641C10.4274 33.3362 8.28444 30.756 6.53444 27.8912C3.17944 22.3955 1.40644 16.0573 1.40644 9.56207V8.21523V7.2603C4.35644 6.86232 6.69144 4.49675 7.08444 1.50941H10.2114C10.4314 1.50941 10.6354 1.3565 10.6704 1.13675C10.7154 0.85726 10.5034 0.615234 10.2354 0.615234H6.70344C6.26244 0.615234 6.24344 1.06182 6.24344 1.06182C6.02844 3.92561 3.76544 6.20916 0.932437 6.41169C0.702437 6.42891 0.523438 6.62232 0.523438 6.85625V8.21523V9.56207C0.523438 23.2684 8.12944 35.1742 19.2964 41.1854C19.4274 41.2552 19.5844 41.2552 19.7154 41.1854C30.8824 35.1742 38.4884 23.2684 38.4884 9.56207V6.85422C38.4884 6.62131 38.3104 6.42891 38.0814 6.41169Z" fill="currentColor"/>
            <path fill-rule="evenodd" clip-rule="evenodd" d="M12.8441 17.156H12.8841H13.7361H13.7671H19.0951C19.2051 18.0441 19.6351 18.8289 20.2651 19.3909H13.7671H12.8841H12.5661H10.2351C8.92513 19.3909 7.83712 18.4228 7.62612 17.156H12.8441ZM13.7671 4.19194C13.7671 2.71042 14.9531 1.50941 16.4161 1.50941H26.1281H26.4461C26.3331 1.60966 26.2271 1.71701 26.1281 1.83144C25.6721 2.35599 25.3651 3.01523 25.2751 3.74435C25.2571 3.89118 25.2451 4.04004 25.2451 4.19194V16.7094C25.2451 16.8613 25.2291 17.0102 25.2051 17.156C24.9941 18.4228 23.9061 19.3909 22.5961 19.3909C21.2861 19.3909 20.1981 18.4228 19.9871 17.156C19.9761 17.0881 19.9661 16.8866 19.9591 16.6932C19.9511 16.4522 19.7561 16.2618 19.5181 16.2618H13.7671V4.19194ZM28.7771 1.50941C30.0861 1.50941 31.1741 2.47751 31.3861 3.74435H26.1681C26.3791 2.47751 27.4671 1.50941 28.7771 1.50941ZM6.70312 16.7094C6.70312 16.8603 6.71612 17.0092 6.73412 17.156C6.84312 18.0441 7.27412 18.8289 7.90512 19.3909C8.52712 19.9459 9.34113 20.2851 10.2351 20.2851H22.5961C23.4901 20.2851 24.3041 19.9459 24.9271 19.3909C25.0391 19.2907 25.1451 19.1833 25.2451 19.0689C25.7011 18.5443 26.0071 17.8851 26.0971 17.156L26.1281 16.7094V4.63853H31.8671C32.1111 4.63853 32.3081 4.43802 32.3081 4.19194C32.3081 4.04004 32.2961 3.89118 32.2781 3.74435C32.1681 2.85625 31.7381 2.07144 31.1071 1.50941C30.4851 0.954475 29.6711 0.615234 28.7771 0.615234H16.4161C15.5211 0.615234 14.7071 0.954475 14.0851 1.50941C13.9721 1.60966 13.8661 1.71701 13.7671 1.83144C13.2191 2.46131 12.8841 3.28561 12.8841 4.19194V16.2618H7.14512C6.90112 16.2618 6.70312 16.4623 6.70312 16.7094Z" fill="currentColor"/>
        </symbol>
    </defs>
    <use xlink:href="#logo-symbol" fill="white" style="color: white;"/>
</svg>
