<svg width="39" height="42" viewBox="0 0 39 42" fill="none" xmlns="http://www.w3.org/2000/svg">
<path fill-rule="evenodd" clip-rule="evenodd" d="M21.4915 10.4491C22.2225 10.4491 22.8155 11.0496 22.8155 11.7898C22.8155 12.5311 22.2225 13.1316 21.4915 13.1316C20.7605 13.1316 20.1675 12.5311 20.1675 11.7898C20.1675 11.0496 20.7605 10.4491 21.4915 10.4491ZM20.4555 14.1463C20.2775 14.4248 20.1255 14.5585 20.1125 14.5706C19.9215 14.7245 19.8905 15.0061 20.0435 15.1985C20.1305 15.3088 20.2585 15.3666 20.3885 15.3666C20.4845 15.3666 20.5825 15.3352 20.6635 15.2683C20.6885 15.2481 20.9905 14.9949 21.2945 14.4623C21.3995 14.4531 21.5225 14.439 21.6655 14.4217C21.9765 14.9838 22.2935 15.2481 22.3195 15.2683C22.4005 15.3342 22.4965 15.3666 22.5925 15.3666C22.7205 15.3666 22.8475 15.3098 22.9355 15.2015C23.0885 15.0111 23.0605 14.7306 22.8745 14.5736C22.8615 14.5625 22.7545 14.4673 22.6165 14.2769C22.7225 14.2496 22.8155 14.2182 22.9025 14.1767C23.0885 14.0866 23.7095 13.7868 23.8525 13.2187C23.9675 12.764 23.6425 12.6698 23.6155 12.0217C23.5795 11.1843 24.1005 10.8369 23.8525 10.3448C23.7895 10.2202 23.6525 10.1017 23.3775 9.8658C23.1295 9.65314 22.9285 9.48099 22.6655 9.38681C22.3235 9.2663 22.1925 9.38985 21.7155 9.38681C20.8565 9.38276 20.6795 8.98276 20.2905 9.14782C20.1165 9.22074 19.9365 9.59643 19.5775 10.3448C19.2195 11.0921 19.1675 11.3615 18.8655 11.5428C18.7905 11.5873 18.6575 11.6521 18.6275 11.7817C18.5915 11.9407 18.7415 12.0572 18.8655 12.2607C19.1255 12.6921 18.8945 12.9119 19.1025 13.2187C19.3135 13.5286 19.5785 13.3493 20.0525 13.6977C20.2835 13.8678 20.3675 14.0187 20.4555 14.1463Z" fill="white"/>
<path fill-rule="evenodd" clip-rule="evenodd" d="M13.3245 28.7793C12.0145 28.7793 10.9235 27.8112 10.7125 26.5443H28.2975C28.0865 27.8112 26.9955 28.7793 25.6855 28.7793H13.3245ZM25.2435 29.8973V36.3388C24.5325 36.9413 23.7955 37.5145 23.0365 38.0583V29.8973V29.6735H25.2435V29.8973ZM22.1535 29.8973V38.6719C21.4365 39.153 20.6995 39.6066 19.9465 40.033V29.8973V29.6735H22.1535V29.8973ZM19.0635 29.8973V40.033C18.3105 39.6066 17.5735 39.153 16.8565 38.6719V29.8973V29.6735H19.0635V29.8973ZM15.9735 29.8973V38.0583C15.2145 37.5145 14.4775 36.9413 13.7655 36.3388V29.8973V29.6735H15.9735V29.8973ZM7.62246 23.4142H31.3875C31.1775 24.6811 30.0855 25.6502 28.7755 25.6502H10.2345C8.92446 25.6502 7.83246 24.6811 7.62246 23.4142ZM38.0805 6.41169C37.0185 6.33675 36.0375 5.96815 35.2135 5.38688C34.9755 5.21878 34.6555 5.29979 34.5475 5.5722C34.4695 5.76966 34.5345 5.99042 34.6965 6.10485C35.5435 6.70739 36.5325 7.1165 37.6045 7.26131V9.56207C37.6045 16.0573 35.8315 22.3955 32.4765 27.8912C30.7265 30.756 28.5835 33.3362 26.1265 35.5641V29.8973V29.6735V29.6421C27.7325 29.4395 29.0025 28.1474 29.1905 26.517C30.9455 26.3084 32.3075 24.8006 32.3075 22.9676C32.3075 22.7206 32.1095 22.5211 31.8665 22.5211H7.14446C6.90046 22.5211 6.70246 22.7206 6.70246 22.9676C6.70246 24.8006 8.06446 26.3084 9.81946 26.517C10.0075 28.1474 11.2775 29.4395 12.8835 29.6421V29.8973V35.5641C10.4265 33.3362 8.28346 30.756 6.53346 27.8912C3.17846 22.3955 1.40546 16.0573 1.40546 9.56207V8.21523V7.2603C4.35546 6.86232 6.69046 4.49675 7.08346 1.50941H10.2105C10.4305 1.50941 10.6345 1.3565 10.6695 1.13675C10.7145 0.85726 10.5025 0.615234 10.2345 0.615234H6.70246C6.26146 0.615234 6.24246 1.06182 6.24246 1.06182C6.02746 3.92561 3.76446 6.20916 0.931461 6.41169C0.701461 6.42891 0.522461 6.62232 0.522461 6.85625V8.21523V9.56207C0.522461 23.2684 8.12846 35.1742 19.2955 41.1854C19.4265 41.2552 19.5835 41.2552 19.7145 41.1854C30.8815 35.1742 38.4875 23.2684 38.4875 9.56207V6.85422C38.4875 6.62131 38.3095 6.42891 38.0805 6.41169Z" fill="white"/>
<path fill-rule="evenodd" clip-rule="evenodd" d="M12.8431 17.156H12.8831H13.7351H13.7661H19.0941C19.2041 18.0441 19.6341 18.8289 20.2641 19.3909H13.7661H12.8831H12.5651H10.2341C8.92415 19.3909 7.83615 18.4228 7.62515 17.156H12.8431ZM13.7661 4.19194C13.7661 2.71042 14.9521 1.50941 16.4151 1.50941H26.1271H26.4451C26.3321 1.60966 26.2262 1.71701 26.1271 1.83144C25.6712 2.35599 25.3641 3.01523 25.2741 3.74435C25.2561 3.89118 25.2441 4.04004 25.2441 4.19194V16.7094C25.2441 16.8613 25.2281 17.0102 25.2041 17.156C24.9931 18.4228 23.9051 19.3909 22.5951 19.3909C21.2851 19.3909 20.1971 18.4228 19.9861 17.156C19.9751 17.0881 19.9651 16.8866 19.9581 16.6932C19.9501 16.4522 19.7551 16.2618 19.5171 16.2618H13.7661V4.19194ZM28.7761 1.50941C30.0851 1.50941 31.1731 2.47751 31.3851 3.74435H26.1671C26.3781 2.47751 27.4661 1.50941 28.7761 1.50941ZM6.70215 16.7094C6.70215 16.8603 6.71515 17.0092 6.73315 17.156C6.84215 18.0441 7.27315 18.8289 7.90415 19.3909C8.52615 19.9459 9.34015 20.2851 10.2341 20.2851H22.5951C23.4891 20.2851 24.3032 19.9459 24.9261 19.3909C25.0381 19.2907 25.1441 19.1833 25.2441 19.0689C25.7001 18.5443 26.0061 17.8851 26.0961 17.156L26.1271 16.7094V4.63853H31.8661C32.1101 4.63853 32.3071 4.43802 32.3071 4.19194C32.3071 4.04004 32.2951 3.89118 32.2771 3.74435C32.1671 2.85625 31.7372 2.07144 31.1061 1.50941C30.4841 0.954475 29.6701 0.615234 28.7761 0.615234H16.4151C15.5201 0.615234 14.7061 0.954475 14.0841 1.50941C13.9711 1.60966 13.8651 1.71701 13.7661 1.83144C13.2181 2.46131 12.8831 3.28561 12.8831 4.19194V16.2618H7.14415C6.90015 16.2618 6.70215 16.4623 6.70215 16.7094Z" fill="white"/>
</svg>
