<svg width="188" height="41" viewBox="0 0 188 41" fill="none" xmlns="http://www.w3.org/2000/svg">
<path fill-rule="evenodd" clip-rule="evenodd" d="M69.6866 4.44824H69.1625C68.7268 4.44824 68.3726 4.79821 68.3726 5.22751V11.5218H60.5806V5.22751C60.5806 4.79821 60.2264 4.44824 59.7906 4.44824H59.2665C58.8307 4.44824 58.4766 4.79821 58.4766 5.22751V19.8709C58.4766 20.3008 58.8307 20.6508 59.2665 20.6508H59.7906C60.2264 20.6508 60.5806 20.3008 60.5806 19.8709V13.5974H68.3726V19.8709C68.3726 20.3008 68.7268 20.6508 69.1625 20.6508H69.6866C70.1224 20.6508 70.4766 20.3008 70.4766 19.8709V5.22751C70.4766 4.79821 70.1224 4.44824 69.6866 4.44824Z" fill="white"/>
<path fill-rule="evenodd" clip-rule="evenodd" d="M87.3108 15.5365C87.3108 17.5733 85.0587 18.5008 82.9657 18.5008C80.8833 18.5008 78.6424 17.5733 78.6424 15.5365V8.52881C78.6424 6.36838 80.9602 5.58198 82.9463 5.56449C84.9601 5.56507 87.3108 6.34157 87.3108 8.52881V15.5365ZM82.9657 3.43555C79.84 3.43555 76.4766 5.02934 76.4766 8.52881V15.5365C76.4766 18.8943 79.7414 20.6507 82.9657 20.6507C86.2012 20.6507 89.4766 18.8943 89.4766 15.5365V8.52881C89.4766 5.02934 86.1014 3.43555 82.9657 3.43555Z" fill="white"/>
<path fill-rule="evenodd" clip-rule="evenodd" d="M104.687 4.44824H94.2665C93.8308 4.44824 93.4766 4.79821 93.4766 5.22751V5.74458C93.4766 6.17388 93.8308 6.52384 94.2665 6.52384H98.4245V19.8709C98.4245 20.3008 98.7793 20.6508 99.2145 20.6508H99.7386C100.174 20.6508 100.529 20.3008 100.529 19.8709V6.52384H104.687C105.123 6.52384 105.477 6.17388 105.477 5.74458V5.22751C105.477 4.79821 105.123 4.44824 104.687 4.44824Z" fill="white"/>
<path fill-rule="evenodd" clip-rule="evenodd" d="M112.332 13.342L114.476 7.85957L116.621 13.342H112.332ZM121.426 19.6009L115.688 4.95687C115.569 4.65248 115.258 4.44824 114.914 4.44824H114.039C113.695 4.44824 113.384 4.65248 113.265 4.95687L107.527 19.6009C107.436 19.8355 107.47 20.0966 107.617 20.3042L107.608 20.3273H107.634C107.789 20.5298 108.036 20.6508 108.301 20.6508H108.892C109.235 20.6508 109.546 20.446 109.665 20.1427L111.524 15.4176H117.428L119.288 20.1427C119.407 20.446 119.718 20.6508 120.061 20.6508H120.652C120.916 20.6508 121.164 20.5298 121.319 20.3273H121.346L121.336 20.3036C121.484 20.096 121.517 19.8349 121.426 19.6009Z" fill="white"/>
<path fill-rule="evenodd" clip-rule="evenodd" d="M132.311 12.7422H128.512V6.48221H132.305C134.471 6.50021 135.441 8.08744 135.441 9.65385C135.441 11.1916 134.473 12.7422 132.311 12.7422ZM132.311 4.44824H127.24C126.819 4.44824 126.477 4.79821 126.477 5.22751V19.8709C126.477 20.3008 126.819 20.6508 127.24 20.6508H127.748C128.169 20.6508 128.512 20.3008 128.512 19.8709V14.8184L132.337 14.8178C135.711 14.7936 137.477 12.2122 137.477 9.67467C137.477 7.1135 135.704 4.49663 132.311 4.44824Z" fill="white"/>
<path fill-rule="evenodd" clip-rule="evenodd" d="M154.627 4.44824H153.86C153.57 4.44824 153.303 4.58215 153.146 4.80496L144.735 16.7516L144.74 5.22751C144.74 4.79821 144.358 4.44824 143.89 4.44824H143.326C142.858 4.44824 142.477 4.79821 142.477 5.22751V19.8709C142.477 20.3008 142.858 20.6508 143.326 20.6508H144.206C144.496 20.6508 144.763 20.5174 144.92 20.2935L153.214 8.49761L153.212 19.8709C153.212 20.3008 153.594 20.6508 154.063 20.6508H154.627C155.096 20.6508 155.477 20.3008 155.477 19.8709V5.22751C155.477 4.79821 155.096 4.44824 154.627 4.44824Z" fill="white"/>
<path fill-rule="evenodd" clip-rule="evenodd" d="M171.405 4.77176H171.323C171.173 4.57034 170.939 4.44824 170.683 4.44824H170.07C169.757 4.44824 169.473 4.62941 169.345 4.90792L165.879 12.4406L165.654 12.938L161.663 4.88767C161.53 4.62097 161.25 4.44824 160.947 4.44824H160.271C160.014 4.44824 159.782 4.57034 159.632 4.77176H159.523L159.571 4.86741C159.452 5.08797 159.443 5.34566 159.556 5.57128L164.501 15.4153L162.567 19.5469C162.461 19.7747 162.477 20.0341 162.601 20.2502L162.565 20.3273H162.651C162.801 20.5287 163.035 20.6508 163.291 20.6508H163.903C164.215 20.6508 164.5 20.4707 164.627 20.1928L171.406 5.5499C171.513 5.32147 171.496 5.06209 171.371 4.84547L171.405 4.77176Z" fill="white"/>
<path fill-rule="evenodd" clip-rule="evenodd" d="M187.445 17.4166C187.381 17.198 187.226 17.0156 187.019 16.9147L186.535 16.678C186.158 16.495 185.701 16.6163 185.472 16.9608C184.839 17.9104 183.414 18.5009 181.751 18.5009C179.79 18.5009 177.681 17.5927 177.681 15.6002V8.59276C177.681 6.62594 179.778 5.56442 181.751 5.56442C183.389 5.56442 184.844 6.20273 185.458 7.1908C185.578 7.38259 185.777 7.51841 186.006 7.5633C186.232 7.60585 186.467 7.55514 186.652 7.42456L187.135 7.08121C187.484 6.83463 187.579 6.36129 187.353 6.00453C186.35 4.42012 184.229 3.43555 181.817 3.43555C178.666 3.43555 175.477 5.17036 175.477 8.48666V15.6002C175.477 18.9165 178.632 20.6507 181.751 20.6507C184.194 20.6507 186.341 19.658 187.353 18.0613C187.475 17.8678 187.509 17.6329 187.445 17.4166Z" fill="white"/>
<path fill-rule="evenodd" clip-rule="evenodd" d="M20.969 9.83434C21.7 9.83434 22.293 10.4349 22.293 11.1751C22.293 11.9164 21.7 12.5169 20.969 12.5169C20.238 12.5169 19.645 11.9164 19.645 11.1751C19.645 10.4349 20.238 9.83434 20.969 9.83434ZM19.933 13.5316C19.755 13.81 19.603 13.9437 19.59 13.9559C19.399 14.1098 19.368 14.3913 19.521 14.5837C19.608 14.6941 19.736 14.7518 19.866 14.7518C19.962 14.7518 20.06 14.7204 20.141 14.6536C20.166 14.6333 20.468 14.3802 20.772 13.8475C20.877 13.8384 21 13.8242 21.143 13.807C21.454 14.369 21.771 14.6333 21.797 14.6536C21.878 14.7194 21.974 14.7518 22.07 14.7518C22.198 14.7518 22.325 14.6951 22.413 14.5867C22.566 14.3964 22.538 14.1159 22.352 13.9589C22.339 13.9478 22.232 13.8526 22.094 13.6622C22.2 13.6348 22.293 13.6035 22.38 13.5619C22.566 13.4718 23.187 13.1721 23.33 12.604C23.445 12.1493 23.12 12.0551 23.093 11.407C23.057 10.5695 23.578 10.2222 23.33 9.73004C23.267 9.60548 23.13 9.487 22.855 9.25105C22.607 9.03839 22.406 8.86624 22.143 8.77207C21.801 8.65156 21.67 8.7751 21.193 8.77207C20.334 8.76801 20.157 8.36801 19.768 8.53308C19.594 8.60599 19.414 8.98169 19.055 9.73004C18.697 10.4774 18.645 10.7467 18.343 10.928C18.268 10.9726 18.135 11.0374 18.105 11.167C18.069 11.326 18.219 11.4424 18.343 11.646C18.603 12.0774 18.372 12.2971 18.58 12.604C18.791 12.9138 19.056 12.7346 19.53 13.083C19.761 13.2531 19.845 13.404 19.933 13.5316Z" fill="white"/>
<path fill-rule="evenodd" clip-rule="evenodd" d="M12.802 28.1641C11.492 28.1641 10.401 27.1959 10.19 25.9291H27.775C27.564 27.1959 26.473 28.1641 25.163 28.1641H12.802ZM24.721 29.282V35.7235C24.01 36.3261 23.273 36.8992 22.514 37.443V29.282V29.0582H24.721V29.282ZM21.631 29.282V38.0567C20.914 38.5377 20.177 38.9914 19.424 39.4177V29.282V29.0582H21.631V29.282ZM18.541 29.282V39.4177C17.788 38.9914 17.051 38.5377 16.334 38.0567V29.282V29.0582H18.541V29.282ZM15.451 29.282V37.443C14.692 36.8992 13.955 36.3261 13.243 35.7235V29.282V29.0582H15.451V29.282ZM7.1 22.799H30.865C30.655 24.0658 29.563 25.0349 28.253 25.0349H9.712C8.402 25.0349 7.31 24.0658 7.1 22.799ZM37.558 5.79646C36.496 5.72152 35.515 5.35291 34.691 4.77165C34.453 4.60354 34.133 4.68456 34.025 4.95696C33.947 5.15443 34.012 5.37519 34.174 5.48962C35.021 6.09215 36.01 6.50127 37.082 6.64608V8.94684C37.082 15.442 35.309 21.7803 31.954 27.2759C30.204 30.1408 28.061 32.721 25.604 34.9489V29.282V29.0582V29.0268C27.21 28.8243 28.48 27.5322 28.668 25.9018C30.423 25.6932 31.785 24.1853 31.785 22.3524C31.785 22.1053 31.587 21.9058 31.344 21.9058H6.622C6.378 21.9058 6.18 22.1053 6.18 22.3524C6.18 24.1853 7.542 25.6932 9.297 25.9018C9.485 27.5322 10.755 28.8243 12.361 29.0268V29.282V34.9489C9.904 32.721 7.761 30.1408 6.011 27.2759C2.656 21.7803 0.883 15.442 0.883 8.94684V7.6V6.64506C3.833 6.24709 6.168 3.88152 6.561 0.894177H9.688C9.908 0.894177 10.112 0.741266 10.147 0.521519C10.192 0.242025 9.98 0 9.712 0H6.18C5.739 0 5.72 0.446582 5.72 0.446582C5.505 3.31038 3.242 5.59392 0.409 5.79646C0.179 5.81367 0 6.00709 0 6.24101V7.6V8.94684C0 22.6532 7.606 34.559 18.773 40.5701C18.904 40.64 19.061 40.64 19.192 40.5701C30.359 34.559 37.965 22.6532 37.965 8.94684V6.23899C37.965 6.00608 37.787 5.81367 37.558 5.79646Z" fill="white"/>
<path fill-rule="evenodd" clip-rule="evenodd" d="M12.3207 16.5408H12.3607H13.2127H13.2437H18.5717C18.6817 17.4289 19.1117 18.2137 19.7417 18.7757H13.2437H12.3607H12.0427H9.71169C8.40169 18.7757 7.31369 17.8076 7.10269 16.5408H12.3207ZM13.2437 3.57671C13.2437 2.09519 14.4297 0.894177 15.8927 0.894177H25.6047H25.9227C25.8097 0.99443 25.7037 1.10177 25.6047 1.2162C25.1487 1.74076 24.8417 2.4 24.7517 3.12911C24.7337 3.27595 24.7217 3.42481 24.7217 3.57671V16.0942C24.7217 16.2461 24.7057 16.3949 24.6817 16.5408C24.4707 17.8076 23.3827 18.7757 22.0727 18.7757C20.7627 18.7757 19.6747 17.8076 19.4637 16.5408C19.4527 16.4729 19.4427 16.2714 19.4357 16.078C19.4277 15.837 19.2327 15.6466 18.9947 15.6466H13.2437V3.57671ZM28.2537 0.894177C29.5627 0.894177 30.6507 1.86228 30.8627 3.12911H25.6447C25.8557 1.86228 26.9437 0.894177 28.2537 0.894177ZM6.17969 16.0942C6.17969 16.2451 6.19269 16.3939 6.21069 16.5408C6.31969 17.4289 6.75069 18.2137 7.38169 18.7757C8.00369 19.3306 8.81769 19.6699 9.71169 19.6699H22.0727C22.9667 19.6699 23.7807 19.3306 24.4037 18.7757C24.5157 18.6754 24.6217 18.5681 24.7217 18.4537C25.1777 17.9291 25.4837 17.2699 25.5737 16.5408L25.6047 16.0942V4.02329H31.3437C31.5877 4.02329 31.7847 3.82278 31.7847 3.57671C31.7847 3.42481 31.7727 3.27595 31.7547 3.12911C31.6447 2.24101 31.2147 1.4562 30.5837 0.894177C29.9617 0.339241 29.1477 0 28.2537 0H15.8927C14.9977 0 14.1837 0.339241 13.5617 0.894177C13.4487 0.99443 13.3427 1.10177 13.2437 1.2162C12.6957 1.84608 12.3607 2.67038 12.3607 3.57671V15.6466H6.62169C6.37769 15.6466 6.17969 15.8471 6.17969 16.0942Z" fill="white"/>
</svg>
