<svg width="50" height="50" viewBox="0 0 50 50" fill="none" xmlns="http://www.w3.org/2000/svg">
<path d="M13 34L19 16L25 26.2L31.6 16L37 34" stroke="#2C77CF" stroke-width="3" stroke-linecap="round" stroke-linejoin="round"/>
<path d="M48.5 27.5C48.5 34.4596 45.8532 39.3054 41.1115 42.7915C39.1929 44.202 36.8264 44.9005 34.0605 45.2286C31.6439 45.5152 29.0465 45.5089 26.284 45.5021C25.8598 45.501 25.4318 45.5 25 45.5C24.5682 45.5 24.1402 45.501 23.716 45.5021C20.9535 45.5089 18.3561 45.5152 15.9395 45.2286C13.1736 44.9005 10.8071 44.202 8.88852 42.7915C4.14684 39.3054 1.5 34.4596 1.5 27.5C1.5 14.4825 12.0596 3.5 25 3.5C37.9404 3.5 48.5 14.4825 48.5 27.5Z" stroke="#2C77CF" stroke-width="3"/>
</svg>
