<svg width="100" height="100" viewBox="0 0 100 100" fill="none" xmlns="http://www.w3.org/2000/svg">
<path d="M27 88H79C82.3137 88 85 85.3137 85 82V18C85 14.6863 82.3137 12 79 12H27" stroke="#3A5C6B" stroke-width="3"/>
<path d="M20 12H21C24.3137 12 27 14.6863 27 18V82C27 85.3137 24.3137 88 21 88H20" stroke="#3A5C6B" stroke-width="3" stroke-linecap="round"/>
<path d="M28 12H20C16.6863 12 14 14.6863 14 18V18C14 21.3137 16.6863 24 20 24H28" stroke="#3A5C6B" stroke-width="3"/>
<path d="M28 76H20C16.6863 76 14 78.6863 14 82V82C14 85.3137 16.6863 88 20 88H28" stroke="#3A5C6B" stroke-width="3"/>
<path d="M38 26H74" stroke="#FF1232" stroke-width="3" stroke-linecap="round"/>
<path d="M42 73L53 73" stroke="#FF1232" stroke-width="3" stroke-linecap="round"/>
<path d="M59 73L70 73" stroke="#FF1232" stroke-width="3" stroke-linecap="round"/>
<path d="M61.8737 61.0536C67.9848 61.0536 72.9388 56.0995 72.9388 49.9885C72.9388 43.8774 67.9848 38.9233 61.8737 38.9233C55.7626 38.9233 50.8086 43.8774 50.8086 49.9885C50.8086 51.9952 51.3428 53.8772 52.2768 55.5" stroke="#FF1232" stroke-width="3" stroke-linecap="round"/>
<path d="M50.0651 38.9233C43.954 38.9233 39 43.8774 39 49.9885C39 56.0995 43.954 61.0536 50.0651 61.0536C56.1762 61.0536 61.1302 56.0995 61.1302 49.9885C61.1302 47.9912 60.6011 46.1175 59.6753 44.5" stroke="#FF1232" stroke-width="3" stroke-linecap="round"/>
</svg>
