<svg width="100" height="100" viewBox="0 0 100 100" fill="none" xmlns="http://www.w3.org/2000/svg">
<path d="M24 88H75M24 12H76C79.3137 12 82 14.6863 82 18V63.5" stroke="#3A5C6B" stroke-width="3" stroke-linecap="round"/>
<path d="M17 12H18C21.3137 12 24 14.6863 24 18V82C24 85.3137 21.3137 88 18 88H17" stroke="#3A5C6B" stroke-width="3" stroke-linecap="round"/>
<path d="M25 12H17C13.6863 12 11 14.6863 11 18V18C11 21.3137 13.6863 24 17 24H25" stroke="#3A5C6B" stroke-width="3"/>
<path d="M25 76H17C13.6863 76 11 78.6863 11 82V82C11 85.3137 13.6863 88 17 88H25" stroke="#3A5C6B" stroke-width="3"/>
<path d="M72.5 50C72.5 60.7696 63.7696 69.5 53 69.5C42.2305 69.5 33.5 60.7696 33.5 50C33.5 39.2304 42.2304 30.5 53 30.5C63.7695 30.5 72.5 39.2304 72.5 50Z" stroke="#FF6A41" stroke-width="3"/>
<rect x="70.344" y="73.4443" width="8.62798" height="23.7519" rx="4.31399" transform="rotate(-45 70.344 73.4443)" stroke="#FF6A41" stroke-width="3"/>
<path d="M66.8516 63.8518L73.7034 70.7037" stroke="#FF6A41" stroke-width="3"/>
<path d="M53 40L53 54" stroke="#3A5C6B" stroke-width="3" stroke-linecap="round"/>
<circle cx="53" cy="60" r="2" fill="#3A5C6B"/>
</svg>
