<svg width="42" height="42" viewBox="0 0 42 42" fill="none" xmlns="http://www.w3.org/2000/svg">
<path d="M4.5 7.5C4.5 4.18629 7.18629 1.5 10.5 1.5H31.5C34.8137 1.5 37.5 4.18629 37.5 7.5V34.5C37.5 37.8137 34.8137 40.5 31.5 40.5H10.5C7.18629 40.5 4.5 37.8137 4.5 34.5V7.5Z" stroke="#2C77CF" stroke-width="3"/>
<path d="M13.5 10C12.6716 10 12 10.6716 12 11.5C12 12.3284 12.6716 13 13.5 13V10ZM28.5 13C29.3284 13 30 12.3284 30 11.5C30 10.6716 29.3284 10 28.5 10V13ZM13.5 13H28.5V10H13.5V13Z" fill="#2C77CF"/>
<path d="M13.5 19C12.6716 19 12 19.6716 12 20.5C12 21.3284 12.6716 22 13.5 22V19ZM28.5 22C29.3284 22 30 21.3284 30 20.5C30 19.6716 29.3284 19 28.5 19V22ZM13.5 22H28.5V19H13.5V22Z" fill="#2C77CF"/>
<path d="M13.5 28C12.6716 28 12 28.6716 12 29.5C12 30.3284 12.6716 31 13.5 31V28ZM20.5 31C21.3284 31 22 30.3284 22 29.5C22 28.6716 21.3284 28 20.5 28V31ZM13.5 31H20.5V28H13.5V31Z" fill="#2C77CF"/>
</svg>
