<svg width="100" height="100" viewBox="0 0 100 100" fill="none" xmlns="http://www.w3.org/2000/svg">
<path d="M27 88H79C82.3137 88 85 85.3137 85 82V18C85 14.6863 82.3137 12 79 12H27" stroke="#3A5C6B" stroke-width="3"/>
<path d="M58 29H74" stroke="#3A5C6B" stroke-width="3" stroke-linecap="round"/>
<path d="M20 12H21C24.3137 12 27 14.6863 27 18V82C27 85.3137 24.3137 88 21 88H20" stroke="#3A5C6B" stroke-width="3" stroke-linecap="round"/>
<path d="M28 12H20C16.6863 12 14 14.6863 14 18V18C14 21.3137 16.6863 24 20 24H28" stroke="#3A5C6B" stroke-width="3"/>
<path d="M28 76H20C16.6863 76 14 78.6863 14 82V82C14 85.3137 16.6863 88 20 88H28" stroke="#3A5C6B" stroke-width="3"/>
<path d="M37.9648 28.0352L42.0898 32.1602L49.1609 25.0891" stroke="#6321CD" stroke-width="3" stroke-linecap="round" stroke-linejoin="round"/>
<path d="M58 44H74" stroke="#3A5C6B" stroke-width="3" stroke-linecap="round"/>
<path d="M37.9648 43.0352L42.0898 47.1602L49.1609 40.0891" stroke="#6321CD" stroke-width="3" stroke-linecap="round" stroke-linejoin="round"/>
<path d="M58 59H74" stroke="#3A5C6B" stroke-width="3" stroke-linecap="round"/>
<path d="M37.9648 58.0352L42.0898 62.1602L49.1609 55.0891" stroke="#6321CD" stroke-width="3" stroke-linecap="round" stroke-linejoin="round"/>
<path d="M74 74L38 74" stroke="#6321CD" stroke-width="3" stroke-linecap="round"/>
</svg>
