<svg width="100" height="100" viewBox="0 0 100 100" fill="none" xmlns="http://www.w3.org/2000/svg">
<path d="M29.5 11H81C84.3137 11 87 13.6863 87 17V88L82.2426 83.2426C79.8995 80.8995 76.1005 80.8995 73.7574 83.2426L69 88L64.2426 83.2426C61.8995 80.8995 58.1005 80.8995 55.7574 83.2426L51 88L46.4995 83.4995C44.0584 81.0584 40.066 81.1758 37.7724 83.756L34 88V16C34 13.2386 31.7614 11 29 11V11C26.2386 11 24 13.2386 24 16V57M24 57V62C24 64.7614 21.7614 67 19 67V67C16.2386 67 14 64.7614 14 62V62C14 59.2386 16.2386 57 19 57H24Z" stroke="#3A5C6B" stroke-width="3" stroke-linecap="round" stroke-linejoin="round"/>
<path d="M19 67H33" stroke="#3A5C6B" stroke-width="3"/>
<path d="M55 63V39.3636C55 36.9537 56.9537 35 59.3636 35H64C67.866 35 71 38.134 71 42V42C71 45.866 67.866 49 64 49H50" stroke="#FF9400" stroke-width="3" stroke-linecap="round" stroke-linejoin="round"/>
<path d="M66 56H50" stroke="#FF9400" stroke-width="3" stroke-linecap="round" stroke-linejoin="round"/>
</svg>
