<svg width="75" height="75" viewBox="0 0 75 75" fill="none" xmlns="http://www.w3.org/2000/svg">
<path d="M13.5 8.5V8.5C16.2614 8.5 18.5 10.7386 18.5 13.5V60.5C18.5 63.2614 16.2614 65.5 13.5 65.5V65.5" stroke="#2C77CF" stroke-width="3" stroke-linecap="round"/>
<path d="M18.5 8.5H13.5C10.7386 8.5 8.5 10.7386 8.5 13.5V13.5C8.5 16.2614 10.7386 18.5 13.5 18.5H18.5" stroke="#2C77CF" stroke-width="3"/>
<path d="M18.25 55.5H13.5C10.7386 55.5 8.5 57.7386 8.5 60.5V60.5C8.5 63.2614 10.7386 65.5 13.5 65.5H18.5" stroke="#2C77CF" stroke-width="3"/>
<path d="M18 65.5H55.5C58.8137 65.5 61.5 62.8137 61.5 59.5V59M18 8.5H55.5C58.8137 8.5 61.5 11.1863 61.5 14.5V21" stroke="#2C77CF" stroke-width="3" stroke-linecap="round"/>
<path d="M39.5 48V47.9286C39.5 47.6919 39.6919 47.5 39.9286 47.5H57.0714C57.3081 47.5 57.5 47.6919 57.5 47.9286V48C57.5 49.933 59.067 51.5 61 51.5C62.933 51.5 64.5 49.933 64.5 48V39.2358C64.5 38.8295 64.8295 38.5 65.2358 38.5H65.5C66.6046 38.5 67.5 37.6046 67.5 36.5V36.0269C67.5 34.6611 66.3928 33.5538 65.0269 33.5538H64.9494C64.0506 33.5538 63.2182 33.0808 62.7582 32.3086L60.8556 29.1148C59.6755 27.1338 57.7035 25.7531 55.4384 25.3216C50.854 24.4484 46.146 24.4484 41.5616 25.3216C39.2965 25.7531 37.3245 27.1338 36.1444 29.1148L34.2418 32.3086C33.7818 33.0808 32.9494 33.5538 32.0506 33.5538H31.9731C30.6072 33.5538 29.5 34.6611 29.5 36.0269V36.5C29.5 37.6046 30.3954 38.5 31.5 38.5H31.7642C32.1705 38.5 32.5 38.8295 32.5 39.2358V48C32.5 49.933 34.067 51.5 36 51.5C37.933 51.5 39.5 49.933 39.5 48Z" stroke="#FF1232" stroke-width="3" stroke-linecap="round" stroke-linejoin="round"/>
<path d="M45 36.833L48.5 40.333L54.3333 34.4997" stroke="#FF1232" stroke-width="3" stroke-linecap="round" stroke-linejoin="round"/>
</svg>
